<?xml version="1.0" encoding="UTF-8" standalone="no"?>
<!DOCTYPE svg PUBLIC "-//W3C//DTD SVG 1.0//EN" "http://www.w3.org/TR/2001/REC-SVG-20010904/DTD/svg10.dtd">
<!-- Generated by Microsoft Visio 11.0, SVG Export, v1.0 BusinessParticipant.svg Page-1 -->
<svg xmlns="http://www.w3.org/2000/svg" xmlns:v="http://schemas.microsoft.com/visio/2003/SVGExtensions/" width="5.68132in"
		height="9.62749in" viewBox="0 0 409.055 693.18" xml:space="preserve" color-interpolation-filters="sRGB" class="st5">
	<title>UmlSterotypes</title>
	<v:documentProperties v:langID="1033" v:viewMarkup="false"/>

	<style type="text/css">
	<![CDATA[
		.st1 {fill:#99ccff;stroke:#000080;stroke-linecap:round;stroke-linejoin:round;stroke-width:0.24}
		.st2 {fill:#99ccff;stroke:#000080;stroke-linecap:round;stroke-linejoin:round;stroke-width:0.24;visibility:hidden}
		.st3 {fill:#000080;stroke:none;stroke-linecap:round;stroke-linejoin:round;stroke-width:0.24}
		.st4 {stroke:#000080;stroke-linecap:round;stroke-linejoin:round;stroke-width:0.24}
		.st5 {fill:none;fill-rule:evenodd;font-size:12;overflow:visible;stroke-linecap:square;stroke-miterlimit:3}
	]]>
	</style>

	<g v:mID="0" v:index="1" v:groupContext="foregroundPage">
		<title>Page-1</title>
		<v:pageProperties v:drawingScale="0.0138889" v:pageScale="0.0138889" v:drawingUnits="29" v:shadowOffsetX="9"
				v:shadowOffsetY="-9"/>
		<g id="group1-1" v:mID="1" v:groupContext="group">
			<title>Sheet.1</title>
			<g id="shape2-2" v:mID="2" v:groupContext="shape" transform="translate(72.5679,-85.3939)">
				<title>Sheet.2</title>
				<path d="M133.66 664.26 A27.9756 27.9756 -180 0 0 160.66 693.18 L167.41 693.18 A27.9756 27.9756 -180 0 0 194.41 664.26
							 L194.41 440.76 L194.41 265.64 A6.29451 6.29451 0 0 1 200.49 259.13 A6.29451 6.29451 0 0 1 206.57 265.64
							 L206.57 427.57 A18.8835 18.8835 -180 0 0 224.79 447.09 A18.8835 18.8835 -180 0 0 243.02 427.57 L243.02
							 235.28 A18.8835 18.8835 -180 0 0 224.79 215.76 L18.23 215.76 A18.8835 18.8835 -180 0 0 0 235.28 L0 427.57
							 A18.8835 18.8835 -180 0 0 18.23 447.09 A18.8835 18.8835 -180 0 0 36.45 427.57 L36.45 265.64 A6.29451
							 6.29451 0 0 1 42.53 259.13 A6.29451 6.29451 0 0 1 48.6 265.64 L48.6 440.76 L48.6 663.96 A27.9756 27.9756
							 -180 0 0 75.61 692.88 L82.36 692.88 A27.9756 27.9756 -180 0 0 109.36 663.96 L109.36 453.78 A12.589 12.589
							 0 0 1 121.51 440.76 A12.589 12.589 0 0 1 133.66 453.78 L133.66 664.26 Z M67.51 143.47 A54.0041 57.8328
							 0 0 1 175.51 143.47 A54.0041 57.8328 0 1 1 67.51 143.47 Z" class="st1"/>
			</g>
			<g id="shape3-4" v:mID="3" v:groupContext="shape" transform="translate(154.077,-67.7939)">
				<title>Sheet.3</title>
				<v:textBlock v:margins="rect(4,4,4,4)" v:verticalAlign="0"/>
				<rect x="0" y="675.58" width="80" height="17.6" class="st2"/>
			</g>
		</g>
		<g id="group4-6" transform="translate(165.029,-393.372)" v:mID="4" v:groupContext="group">
			<title>Sheet.4</title>
			<g id="shape5-7" v:mID="5" v:groupContext="shape" transform="translate(2.88544,1362.18) scale(1,-1)">
				<title>Triangle.18</title>
				<v:userDefs>
					<v:ud v:nameU="visVersion" v:val="VT0(11):26"/>
				</v:userDefs>
				<path d="M56.37 693.18 L26.16 664.57 L-4.05 693.18 L56.37 693.18 Z" class="st3"/>
			</g>
			<g id="shape6-9" v:mID="6" v:groupContext="shape" transform="translate(10.4573,-133.443)">
				<title>Sheet.6</title>
				<path d="M31.81 693.18 L37.18 671.72 L0 671.72 L5.37 693.18 L31.81 693.18 Z" class="st3"/>
			</g>
			<g id="shape7-11" v:mID="7" v:groupContext="shape" transform="translate(0,-22.3104)">
				<title>Sheet.7</title>
				<path d="M15.56 594.15 L0 693.18 L58.1 693.18 L42.53 594.15 L15.56 594.15 Z" class="st3"/>
			</g>
		</g>
		<g id="shape8-13" v:mID="8" v:groupContext="shape" transform="translate(266.983,1006.33) rotate(180)">
			<title>Sheet.8</title>
			<path d="M0 693.18 L145.81 693.18" class="st4"/>
		</g>
		<g id="shape9-16" v:mID="9" v:groupContext="shape" transform="translate(315.586,998.033) rotate(180)">
			<title>Sheet.9</title>
			<path d="M0 693.18 L36.45 693.18" class="st4"/>
		</g>
		<g id="shape10-19" v:mID="10" v:groupContext="shape" transform="translate(109.021,997.192) rotate(180)">
			<title>Sheet.10</title>
			<path d="M0 693.18 L36.45 693.18" class="st4"/>
		</g>
	</g>
</svg>
