<?xml version="1.0" encoding="UTF-8" standalone="no"?>
<!DOCTYPE svg PUBLIC "-//W3C//DTD SVG 1.0//EN" "http://www.w3.org/TR/2001/REC-SVG-20010904/DTD/svg10.dtd">
<!-- Generated by Microsoft Visio 11.0, SVG Export, v1.0 Customer-LargeIcon.svg Page-1 -->
<svg xmlns="http://www.w3.org/2000/svg" xmlns:v="http://schemas.microsoft.com/visio/2003/SVGExtensions/" width="2.84123in"
		height="4.6183in" viewBox="0 0 204.568 332.518" xml:space="preserve" color-interpolation-filters="sRGB" class="st5">
	<title>UmlSterotypes</title>
	<v:documentProperties v:langID="1033" v:viewMarkup="false"/>

	<style type="text/css">
	<![CDATA[
		.st1 {fill:#99ccff;stroke:#000080;stroke-linecap:round;stroke-linejoin:round;stroke-width:2.16}
		.st2 {stroke:#000080;stroke-linecap:round;stroke-linejoin:round;stroke-width:2.16}
		.st3 {fill:#000080;stroke:none;stroke-linecap:round;stroke-linejoin:round;stroke-width:2.16}
		.st4 {fill:#000080;stroke:none;stroke-linecap:round;stroke-linejoin:round;stroke-width:2.16;visibility:hidden}
		.st5 {fill:none;fill-rule:evenodd;font-size:12;overflow:visible;stroke-linecap:square;stroke-miterlimit:3}
	]]>
	</style>

	<g v:mID="0" v:index="1" v:groupContext="foregroundPage">
		<title>Page-1</title>
		<v:pageProperties v:drawingScale="0.393701" v:pageScale="0.393701" v:drawingUnits="6" v:shadowOffsetX="9"
				v:shadowOffsetY="-9"/>
		<g id="group10-1" transform="translate(2.16597,-2.16)" v:mID="10" v:groupContext="group">
			<title>Sheet.10</title>
			<g id="shape12-2" v:mID="12" v:groupContext="shape">
				<title>Sheet.12</title>
				<path d="M72.2 316.9 A15.1125 15.1125 -180 0 0 86.79 332.52 L90.44 332.52 A15.1125 15.1125 -180 0 0 105.02 316.9
							 L105.02 196.16 L105.02 101.56 A3.40031 3.40031 0 0 1 108.31 98.04 A3.40031 3.40031 0 0 1 111.59 101.56
							 L111.59 189.04 A10.2009 10.2009 -180 0 0 121.43 199.58 A10.2009 10.2009 -180 0 0 131.28 189.04 L131.28
							 85.16 A10.2009 10.2009 -180 0 0 121.43 74.61 L9.85 74.61 A10.2009 10.2009 -180 0 0 0 85.16 L0 189.04
							 A10.2009 10.2009 -180 0 0 9.85 199.58 A10.2009 10.2009 -180 0 0 19.69 189.04 L19.69 101.56 A3.40031
							 3.40031 0 0 1 22.97 98.04 A3.40031 3.40031 0 0 1 26.26 101.56 L26.26 196.16 L26.26 316.73 A15.1125 15.1125
							 -180 0 0 40.84 332.36 L44.49 332.36 A15.1125 15.1125 -180 0 0 59.08 316.73 L59.08 203.19 A6.80062 6.80062
							 0 0 1 65.64 196.16 A6.80062 6.80062 0 0 1 72.2 203.19 L72.2 316.9 Z M36.47 35.56 A29.1731 31.2414 0
							 0 1 94.81 35.56 A29.1731 31.2414 0 1 1 36.47 35.56 Z" class="st1"/>
			</g>
			<g id="shape13-4" v:mID="13" v:groupContext="shape" transform="translate(105.023,505.875) rotate(180)">
				<title>Sheet.13</title>
				<path d="M0 332.52 L78.77 332.52" class="st2"/>
			</g>
			<g id="shape14-7" v:mID="14" v:groupContext="shape" transform="translate(138.949,500.848) rotate(178.678)">
				<title>Sheet.14</title>
				<path d="M0 332.52 L19.7 332.52" class="st2"/>
			</g>
			<g id="shape15-10" v:mID="15" v:groupContext="shape" transform="translate(19.6919,500.937) rotate(180)">
				<title>Sheet.15</title>
				<path d="M0 332.52 L19.69 332.52" class="st2"/>
			</g>
		</g>
		<g id="group5-13" transform="translate(57.9273,-58.8529)" v:mID="5" v:groupContext="group">
			<v:userDefs>
				<v:ud v:nameU="visVersion" v:val="VT0(11):26"/>
			</v:userDefs>
			<title>Shopping cart</title>
			<g id="shape6-14" v:mID="6" v:groupContext="shape">
				<title>Sheet.6</title>
				<path d="M139.97 274.05 L36.4 288.16 A4.52013 4.03711 -180 1 0 36.12 296.22 L144.48 296.22 L144.48 304.29 L36.12
							 304.29 A14.6494 13.0842 179.72 0 1 30.85 278.8 L13.55 207.51 L2.26 207.51 L0 199.44 L27.09 199.44 L31.61
							 215.57 L144.48 215.57 L139.97 274.05 Z M35.03 320.42 A13.1346 12.0977 0 0 1 61.29 320.42 A13.1346 12.0977
							 0 1 1 35.03 320.42 Z M109.46 320.42 A13.1346 12.0977 0 0 1 135.72 320.42 A13.1346 12.0977 0 0 1 109.46
							 320.42 Z" class="st3"/>
			</g>
			<g id="shape7-16" v:mID="7" v:groupContext="shape" transform="translate(32.2405,17.6)">
				<title>Sheet.7</title>
				<v:textBlock v:margins="rect(4,4,4,4)" v:verticalAlign="0"/>
				<rect x="0" y="314.918" width="80" height="17.6" class="st4"/>
			</g>
		</g>
	</g>
</svg>
