<?xml version="1.0" encoding="UTF-8" standalone="no"?>
<!DOCTYPE svg PUBLIC "-//W3C//DTD SVG 1.0//EN" "http://www.w3.org/TR/2001/REC-SVG-20010904/DTD/svg10.dtd">
<!-- Generated by Microsoft Visio 11.0, SVG Export, v1.0 MarketSegment-LargeIcon.svg Page-1 -->
<svg xmlns="http://www.w3.org/2000/svg" xmlns:v="http://schemas.microsoft.com/visio/2003/SVGExtensions/" width="2.71415in"
		height="2.52517in" viewBox="0 0 195.419 181.812" xml:space="preserve" color-interpolation-filters="sRGB" class="st6">
	<title>UmlSterotypes</title>
	<v:documentProperties v:langID="1033" v:viewMarkup="false"/>

	<style type="text/css">
	<![CDATA[
		.st1 {fill:#99ccff;stroke:#000080;stroke-linecap:round;stroke-linejoin:round;stroke-width:4.08}
		.st2 {fill:#99ccff;font-family:Arial;font-size:0.0833359em;font-weight:bold}
		.st3 {fill:#99ccff;stroke:#000080;stroke-linecap:round;stroke-linejoin:round;stroke-width:4.08;visibility:hidden}
		.st4 {fill:#000080;stroke:#000080;stroke-linecap:round;stroke-linejoin:round;stroke-width:0.72}
		.st5 {fill:#000080;font-family:Arial;font-size:1.00001em}
		.st6 {fill:none;fill-rule:evenodd;font-size:12;overflow:visible;stroke-linecap:square;stroke-miterlimit:3}
	]]>
	</style>

	<g v:mID="0" v:index="1" v:groupContext="foregroundPage">
		<title>Page-1</title>
		<v:pageProperties v:drawingScale="0.393701" v:pageScale="0.393701" v:drawingUnits="6" v:shadowOffsetX="9"
				v:shadowOffsetY="-9"/>
		<g id="group1-1" transform="translate(4.08,-36)" v:mID="1" v:groupContext="group">
			<v:custProps>
				<v:cp v:nameU="Slices" v:lbl="Slices" v:type="1" v:format=" 2; 3; 4; 5; 6; 7; 8; 9;10" v:invis="true"
						v:langID="1033" v:val="VT4( 6)"/>
				<v:cp v:nameU="Pie1" v:lbl="Pie 1" v:type="2" v:format="" v:invis="false" v:langID="1033"
						v:val="VT0(16.666666666667):26"/>
				<v:cp v:nameU="Pie2" v:lbl="Pie 2" v:type="2" v:format="" v:invis="false" v:langID="1033"
						v:val="VT0(16.666666666667):26"/>
				<v:cp v:nameU="Pie3" v:lbl="Pie 3" v:type="2" v:format="" v:invis="false" v:langID="1033"
						v:val="VT0(16.666666666667):26"/>
				<v:cp v:nameU="Pie4" v:lbl="Pie 4" v:type="2" v:format="" v:invis="false" v:langID="1033"
						v:val="VT0(16.666666666667):26"/>
				<v:cp v:nameU="Pie5" v:lbl="Pie 5" v:type="2" v:format="" v:invis="false" v:langID="1033"
						v:val="VT0(16.666666666667):26"/>
				<v:cp v:nameU="Pie6" v:lbl="Pie 6" v:type="2" v:format="" v:invis="false" v:langID="1033"
						v:val="VT0(16.666666666667):26"/>
				<v:cp v:nameU="Pie7" v:lbl="Pie 7" v:type="2" v:format="" v:invis="true" v:langID="1033" v:val="VT0(0):26"/>
				<v:cp v:nameU="Pie8" v:lbl="Pie 8" v:type="2" v:format="" v:invis="true" v:langID="1033" v:val="VT0(0):26"/>
				<v:cp v:nameU="Pie9" v:lbl="Pie 9" v:type="2" v:format="" v:invis="true" v:langID="1033" v:val="VT0(0):26"/>
				<v:cp v:nameU="Pie10" v:lbl="Pie 10" v:type="2" v:format="" v:invis="true" v:langID="1033" v:val="VT0(0):26"/>
			</v:custProps>
			<v:userDefs>
				<v:ud v:nameU="Pies" v:val="VT0(1):26"/>
				<v:ud v:nameU="WatchSlices" v:prompt="Calls VBA procedure to validate slice total." v:val="VT0(0):26"/>
				<v:ud v:nameU="visVersion" v:val="VT0(11):26"/>
			</v:userDefs>
			<title>Pie chart</title>
			<g id="shape2-2" v:mID="2" v:groupContext="shape">
				<title>Sheet.2</title>
				<ellipse cx="70.8661" cy="110.946" rx="70.8661" ry="70.8661" class="st1"/>
			</g>
			<g id="shape3-4" v:mID="3" v:groupContext="shape" transform="translate(-86.5879,201.852) rotate(-120)">
				<title>Sheet.3</title>
				<v:textBlock v:margins="rect(0,0,0,0)"/>
				<v:textRect cx="36.8231" cy="160.552" width="70.87" height="0" transform="rotate(120)"/>
				<path d="M0 181.81 L35.43 120.44 A70.8661 70.8661 0 0 1 70.87 181.81 L0 181.81 Z" class="st1"/>
				<text x="116.01" y="-111.87" transform="rotate(120)" class="st2" v:langID="1033"><v:paragraph v:horizAlign="1"/><v:tabList/>16.666666666667 %</text>			</g>
			<g id="shape4-7" v:mID="4" v:groupContext="shape" transform="translate(70.8661,292.758) rotate(180)">
				<title>Sheet.4</title>
				<v:textBlock v:margins="rect(0,0,0,0)"/>
				<v:textRect cx="36.8231" cy="160.552" width="70.87" height="0" transform="rotate(180)"/>
				<path d="M0 181.81 L35.43 120.44 A70.8661 70.8661 0 0 1 70.87 181.81 L0 181.81 Z" class="st1"/>
				<text x="-41.45" y="-160.25" transform="rotate(180)" class="st2" v:langID="1033"><v:paragraph v:horizAlign="1"/><v:tabList/>16.666666666667 %</text>			</g>
			<g id="shape5-10" v:mID="5" v:groupContext="shape" transform="translate(-86.5879,20.04) rotate(-60)">
				<title>Sheet.5</title>
				<v:textBlock v:margins="rect(0,0,0,0)"/>
				<v:textRect cx="36.8231" cy="160.552" width="70.87" height="0" transform="rotate(60)"/>
				<path d="M0 181.81 L35.43 120.44 A70.8661 70.8661 0 0 1 70.87 181.81 L0 181.81 Z" class="st1"/>
				<text x="152.83" y="48.69" transform="rotate(60)" class="st2" v:langID="1033"><v:paragraph v:horizAlign="1"/><v:tabList/>16.666666666667 %</text>			</g>
			<g id="shape6-13" v:mID="6" v:groupContext="shape" transform="translate(70.8661,-70.8661)">
				<title>Sheet.6</title>
				<v:textBlock v:margins="rect(0,0,0,0)"/>
				<v:textRect cx="36.8231" cy="160.552" width="70.87" height="0"/>
				<path d="M0 181.81 L35.43 120.44 A70.8661 70.8661 0 0 1 70.87 181.81 L0 181.81 Z" class="st1"/>
				<text x="32.2" y="160.85" class="st2" v:langID="1033"><v:paragraph v:horizAlign="1"/><v:tabList/>16.666666666667 %</text>			</g>
			<g id="shape7-16" v:mID="7" v:groupContext="shape" transform="translate(70.8661,-70.8661)">
				<title>Sheet.7</title>
				<v:textBlock v:margins="rect(0,0,0,0)"/>
				<v:textRect cx="85.0394" cy="181.812" width="70.87" height="0"/>
				<path d="M0 181.81 L70.87 181.81 L0 181.81 Z" class="st1"/>
			</g>
			<g id="shape8-18" v:mID="8" v:groupContext="shape" transform="translate(228.32,201.852) rotate(120)">
				<title>Sheet.8</title>
				<v:textBlock v:margins="rect(0,0,0,0)"/>
				<v:textRect cx="36.8231" cy="160.552" width="70.87" height="0" transform="rotate(-120)"/>
				<path d="M0 181.81 L35.43 120.44 A70.8661 70.8661 0 0 1 70.87 181.81 L0 181.81 Z" class="st1"/>
				<text x="-162.08" y="-48.09" transform="rotate(-120)" class="st2" v:langID="1033"><v:paragraph v:horizAlign="1"/><v:tabList/>16.666666666667 %</text>			</g>
			<g id="shape9-21" v:mID="9" v:groupContext="shape" transform="translate(228.32,20.04) rotate(60)">
				<title>Sheet.9</title>
				<v:textBlock v:margins="rect(0,0,0,0)"/>
				<v:textRect cx="36.8231" cy="160.552" width="70.87" height="0" transform="rotate(-60)"/>
				<path d="M0 181.81 L35.43 120.44 A70.8661 70.8661 0 0 1 70.87 181.81 L0 181.81 Z" class="st1"/>
				<text x="-125.25" y="112.47" transform="rotate(-60)" class="st2" v:langID="1033"><v:paragraph v:horizAlign="1"/><v:tabList/>16.666666666667 %</text>			</g>
			<g id="shape10-24" v:mID="10" v:groupContext="shape" transform="translate(70.8661,-70.8661)">
				<title>Sheet.10</title>
				<v:textBlock v:margins="rect(0,0,0,0)"/>
				<v:textRect cx="85.0394" cy="181.812" width="70.87" height="0"/>
				<path d="M0 181.81 L70.87 181.81 L0 181.81 Z" class="st1"/>
			</g>
			<g id="shape11-26" v:mID="11" v:groupContext="shape" transform="translate(70.8661,-70.8661)">
				<title>Sheet.11</title>
				<v:textBlock v:margins="rect(0,0,0,0)"/>
				<v:textRect cx="85.0394" cy="181.812" width="70.87" height="0"/>
				<path d="M0 181.81 L70.87 181.81 L0 181.81 Z" class="st1"/>
			</g>
			<g id="shape12-28" v:mID="12" v:groupContext="shape" transform="translate(70.8661,-70.8661)">
				<title>Sheet.12</title>
				<v:textBlock v:margins="rect(0,0,0,0)"/>
				<v:textRect cx="85.0394" cy="181.812" width="70.87" height="0"/>
				<path d="M0 181.81 L70.87 181.81 L0 181.81 Z" class="st1"/>
			</g>
			<g id="shape13-30" v:mID="13" v:groupContext="shape" transform="translate(0,36)">
				<title>Sheet.13</title>
				<v:textBlock v:margins="rect(0,0,0,0)"/>
				<rect x="0" y="145.812" width="141.732" height="36" class="st3"/>
			</g>
		</g>
		<g id="shape14-32" v:mID="14" v:groupContext="shape" transform="translate(74.9461,-106.866)">
			<title>Pie slice.69</title>
			<v:userDefs>
				<v:ud v:nameU="visVersion" v:val="VT0(11):26"/>
				<v:ud v:nameU="Scale" v:val="VT0(1):26"/>
				<v:ud v:nameU="AntiScale" v:val="VT0(1):26"/>
			</v:userDefs>
			<v:textBlock v:margins="rect(0,0,0,0)"/>
			<v:textRect cx="36.8231" cy="160.552" width="70.87" height="0"/>
			<path d="M0 181.81 L70.87 181.81 A70.8661 70.8661 -180 0 0 35.43 120.44 L0 181.81 Z" class="st4"/>
			<text x="23.14" y="164.15" class="st5" v:langID="1033"><v:paragraph v:horizAlign="1"/><v:tabList/>17 %</text>		</g>
	</g>
</svg>
