<?xml version="1.0" encoding="UTF-8" standalone="no"?>
<!DOCTYPE svg PUBLIC "-//W3C//DTD SVG 1.0//EN" "http://www.w3.org/TR/2001/REC-SVG-20010904/DTD/svg10.dtd">
<!-- Generated by Microsoft Visio 11.0, SVG Export, v1.0 Regulator-LargeIcon.svg Page-1 -->
<svg xmlns="http://www.w3.org/2000/svg" xmlns:v="http://schemas.microsoft.com/visio/2003/SVGExtensions/" width="2.22481in"
		height="3.5983in" viewBox="0 0 160.186 259.077" xml:space="preserve" color-interpolation-filters="sRGB" class="st6">
	<title>UmlSterotypes</title>
	<v:documentProperties v:langID="1033" v:viewMarkup="false"/>

	<style type="text/css">
	<![CDATA[
		.st1 {fill:#99ccff;stroke:#000080;stroke-linecap:round;stroke-linejoin:round;stroke-width:2.16}
		.st2 {stroke:#000080;stroke-linecap:round;stroke-linejoin:round;stroke-width:2.16}
		.st3 {fill:#e3f1ff;stroke:#000080;stroke-linecap:butt;stroke-width:2.16}
		.st4 {fill:#3366ff;stroke:none;stroke-linecap:round;stroke-linejoin:round;stroke-width:2.16}
		.st5 {fill:#3366ff;stroke:none;stroke-linecap:round;stroke-linejoin:round;stroke-width:2.16;visibility:hidden}
		.st6 {fill:none;fill-rule:evenodd;font-size:12;overflow:visible;stroke-linecap:square;stroke-miterlimit:3}
	]]>
	</style>

	<g v:mID="0" v:index="1" v:groupContext="foregroundPage">
		<title>Page-1</title>
		<v:pageProperties v:drawingScale="0.393701" v:pageScale="0.393701" v:drawingUnits="6" v:shadowOffsetX="9"
				v:shadowOffsetY="-9"/>
		<g id="group10-1" transform="translate(2.16464,-2.16)" v:mID="10" v:groupContext="group">
			<title>Sheet.10</title>
			<g id="shape11-2" v:mID="11" v:groupContext="shape">
				<title>Sheet.11</title>
				<path d="M56.05 246.95 A11.7308 11.7308 -180 0 0 67.37 259.08 L70.2 259.08 A11.7308 11.7308 -180 0 0 81.52 246.95
							 L81.52 153.23 L81.52 79.8 A2.63943 2.63943 0 0 1 84.07 77.07 A2.63943 2.63943 0 0 1 86.62 79.8 L86.62
							 147.7 A7.91828 7.91828 -180 0 0 94.26 155.89 A7.91828 7.91828 -180 0 0 101.9 147.7 L101.9 67.07 A7.91828
							 7.91828 -180 0 0 94.26 58.88 L7.64 58.88 A7.91828 7.91828 -180 0 0 0 67.07 L0 147.7 A7.91828 7.91828
							 -180 0 0 7.64 155.89 A7.91828 7.91828 -180 0 0 15.29 147.7 L15.29 79.8 A2.63943 2.63943 0 0 1 17.83
							 77.07 A2.63943 2.63943 0 0 1 20.38 79.8 L20.38 153.23 L20.38 246.83 A11.7308 11.7308 -180 0 0 31.7 258.95
							 L34.53 258.95 A11.7308 11.7308 -180 0 0 45.86 246.83 L45.86 158.69 A5.27886 5.27886 0 0 1 50.95 153.23
							 A5.27886 5.27886 0 0 1 56.05 158.69 L56.05 246.95 Z M28.31 28.57 A22.6451 24.2506 0 0 1 73.6 28.57 A22.6451
							 24.2506 0 0 1 28.31 28.57 Z" class="st1"/>
			</g>
			<g id="shape12-4" v:mID="12" v:groupContext="shape" transform="translate(81.5224,394.609) rotate(180)">
				<title>Sheet.12</title>
				<path d="M0 259.08 L61.14 259.08" class="st2"/>
			</g>
			<g id="shape13-7" v:mID="13" v:groupContext="shape" transform="translate(101.903,391.129) rotate(180)">
				<title>Sheet.13</title>
				<path d="M0 259.08 L15.29 259.08" class="st2"/>
			</g>
			<g id="shape14-10" v:mID="14" v:groupContext="shape" transform="translate(15.2854,390.776) rotate(180)">
				<title>Sheet.14</title>
				<path d="M0 259.08 L15.29 259.08" class="st2"/>
			</g>
		</g>
		<g id="shape1-13" v:mID="1" v:groupContext="shape" transform="translate(73.5353,-108.049)">
			<title>Square.38</title>
			<v:userDefs>
				<v:ud v:nameU="visVersion" v:val="VT0(11):26"/>
			</v:userDefs>
			<rect x="0" y="194.115" width="64.9624" height="64.9624" class="st3"/>
		</g>
		<g id="group2-15" transform="translate(84.9849,-119.092)" v:mID="2" v:groupContext="group">
			<v:userDefs>
				<v:ud v:nameU="subtype" v:val="VT0(1):5"/>
				<v:ud v:nameU="visVersion" v:val="VT0(11):26"/>
			</v:userDefs>
			<title>Check/ Cross</title>
			<g id="shape4-16" v:mID="4" v:groupContext="shape">
				<title>Sheet.4</title>
				<path d="M0 234.31 L1.72 237.08 A61.1122 46.4 0 0 1 29.19 259.08 A188.554 143.161 0 0 1 70.4 191.28 L68.69 188.67
							 A202.889 154.046 -180 0 0 24.25 243.43 A52.3584 39.7536 -180 0 0 0 234.31 Z" class="st4"/>
			</g>
			<g id="shape15-18" v:mID="15" v:groupContext="shape" transform="translate(0,-2.60752)">
				<title>Sheet.15</title>
				<path d="M2.58 229.91 L0 237.08 A61.1122 46.4 0 0 1 27.47 259.08 A188.554 143.161 0 0 1 68.69 191.28 L54.95 191.28
							 A181.91 138.117 -180 0 0 22.54 243.43 A51.7508 39.2923 -180 0 0 2.58 229.91 Z" class="st4"/>
			</g>
			<g id="shape16-20" v:mID="16" v:groupContext="shape" transform="translate(-4.79849,17.6)">
				<title>Sheet.16</title>
				<rect x="0" y="241.477" width="80" height="17.6" class="st5"/>
			</g>
			<g id="shape17-22" v:mID="17" v:groupContext="shape" transform="translate(4.40019,0)">
				<title>Sheet.17</title>
			</g>
			<g id="shape18-24" v:mID="18" v:groupContext="shape" transform="translate(-4.79849,17.6)">
				<title>Sheet.18</title>
				<rect x="0" y="241.477" width="80" height="17.6" class="st5"/>
			</g>
			<g id="shape19-26" v:mID="19" v:groupContext="shape" transform="translate(-4.79849,17.6)">
				<title>Sheet.19</title>
				<v:textBlock v:margins="rect(4,4,4,4)" v:verticalAlign="0"/>
				<rect x="0" y="241.477" width="80" height="17.6" class="st5"/>
			</g>
			<g id="shape20-28" v:mID="20" v:groupContext="shape">
				<title>Sheet.20</title>
			</g>
		</g>
	</g>
</svg>
