<?xml version="1.0" encoding="UTF-8" standalone="no"?>
<!DOCTYPE svg PUBLIC "-//W3C//DTD SVG 1.0//EN" "http://www.w3.org/TR/2001/REC-SVG-20010904/DTD/svg10.dtd">
<!-- Generated by Microsoft Visio 11.0, SVG Export, v1.0 Competitor-LargeIcon.svg Page-1 -->
<svg xmlns="http://www.w3.org/2000/svg" xmlns:v="http://schemas.microsoft.com/visio/2003/SVGExtensions/" width="2.2475in"
		height="2.16938in" viewBox="0 0 161.82 156.195" xml:space="preserve" color-interpolation-filters="sRGB" class="st6">
	<title>UmlSterotypes</title>
	<v:documentProperties v:langID="1033" v:viewMarkup="false"/>

	<style type="text/css">
	<![CDATA[
		.st1 {fill:#99ccff;stroke:#000066;stroke-linecap:butt;stroke-width:2.16}
		.st2 {fill:#000066;stroke:none;stroke-linecap:round;stroke-linejoin:round;stroke-width:0.24}
		.st3 {fill:#000066}
		.st4 {stroke:#000080;stroke-linecap:round;stroke-linejoin:round;stroke-width:0.72}
		.st5 {fill:#000066;stroke:none;stroke-linecap:round;stroke-linejoin:round;stroke-width:0.72}
		.st6 {fill:none;fill-rule:evenodd;font-size:12;overflow:visible;stroke-linecap:square;stroke-miterlimit:3}
	]]>
	</style>

	<g v:mID="0" v:index="1" v:groupContext="foregroundPage">
		<title>Page-1</title>
		<v:pageProperties v:drawingScale="0.393701" v:pageScale="0.393701" v:drawingUnits="6" v:shadowOffsetX="9"
				v:shadowOffsetY="-9"/>
		<g id="shape5-1" v:mID="5" v:groupContext="shape" transform="translate(2.16,-2.16)">
			<title>Sheet.5</title>
			<rect x="0" y="4.32" width="157.5" height="151.875" class="st1"/>
		</g>
		<g id="shape2-3" v:mID="2" v:groupContext="shape" transform="translate(114.66,-73.035)">
			<title>Center drag circle.2</title>
			<v:userDefs>
				<v:ud v:nameU="visVersion" v:val="VT0(11):26"/>
			</v:userDefs>
			<path d="M-11.25 156.19 A11.25 11.25 0 0 1 11.25 156.19 A11.25 11.25 0 1 1 -11.25 156.19 Z" class="st2"/>
		</g>
		<g id="shape3-5" v:mID="3" v:groupContext="shape" transform="translate(42.66,-65.16)">
			<title>Sheet.3</title>
			<path d="M54 156.17 A4.60337 4.60337 -180 0 0 57.73 154.85 A4.60337 4.60337 -180 0 0 57.73 148.34 L12.26 102.86 A4.60337
						 4.60337 -180 0 0 5.74 102.86 A4.60337 4.60337 -180 0 0 5.74 109.37 L39.07 142.69 L0 142.69 L0 143.9 L12.3
						 156.19 L54 156.19 L54 156.17 Z" class="st3"/>
			<path d="M54 156.17 A4.60337 4.60337 -180 0 0 57.73 154.85 A4.60337 4.60337 -180 0 0 57.73 148.34 L12.26 102.86 A4.60337
						 4.60337 -180 0 0 5.74 102.86 A4.60337 4.60337 -180 0 0 5.74 109.37 L39.07 142.69 L0 142.69 L0 143.9 L12.3
						 156.19 L54 156.19" class="st4"/>
		</g>
		<g id="shape4-8" v:mID="4" v:groupContext="shape" transform="translate(71.6185,-95.535)">
			<title>Sheet.4</title>
			<path d="M54 156.17 A4.60337 4.60337 -180 0 0 57.73 154.85 A4.60337 4.60337 -180 0 0 57.73 148.34 L12.26 102.86 A4.60337
						 4.60337 -180 0 0 5.74 102.86 A4.60337 4.60337 -180 0 0 5.74 109.37 L39.07 142.69 L0 142.69 L0 143.9 L12.3
						 156.19 L54 156.19 L54 156.17 Z" class="st3"/>
			<path d="M54 156.17 A4.60337 4.60337 -180 0 0 57.73 154.85 A4.60337 4.60337 -180 0 0 57.73 148.34 L12.26 102.86 A4.60337
						 4.60337 -180 0 0 5.74 102.86 A4.60337 4.60337 -180 0 0 5.74 109.37 L39.07 142.69 L0 142.69 L0 143.9 L12.3
						 156.19 L54 156.19" class="st4"/>
		</g>
		<g id="shape7-11" v:mID="7" v:groupContext="shape" transform="translate(6.29228,-5.30215)">
			<title>Sheet.7</title>
			<path d="M63.41 118.26 A6.11722 6.11722 -180 0 0 61.73 115.09 L32.15 85.52 A6.11722 6.11722 -180 0 0 23.5 85.52 A6.11722
						 6.11722 -180 0 0 23.5 94.17 L45.35 116.02 A4.5 4.5 0 0 1 44.42 123.1 L2.36 147.38 A4.72622 4.72622 -180
						 0 0 0.63 153.83 A4.72622 4.72622 -180 0 0 7.09 155.56 L61.37 124.22 A4.72622 4.72622 -180 0 0 63.53 118.74
						 A4.5 4.5 0 0 1 63.41 118.26 Z" class="st5"/>
		</g>
		<g id="shape1-13" v:mID="1" v:groupContext="shape" transform="translate(143.91,-103.41)">
			<title>Center drag circle.1</title>
			<v:userDefs>
				<v:ud v:nameU="visVersion" v:val="VT0(11):26"/>
			</v:userDefs>
			<path d="M-11.25 156.19 A11.25 11.25 0 0 1 11.25 156.19 A11.25 11.25 0 1 1 -11.25 156.19 Z" class="st2"/>
		</g>
	</g>
</svg>
