<?xml version="1.0" encoding="UTF-8" standalone="no"?>
<!DOCTYPE svg PUBLIC "-//W3C//DTD SVG 1.0//EN" "http://www.w3.org/TR/2001/REC-SVG-20010904/DTD/svg10.dtd">
<!-- Generated by Microsoft Visio 11.0, SVG Export, v1.0 Customer.svg Page-1 -->
<svg xmlns="http://www.w3.org/2000/svg" xmlns:v="http://schemas.microsoft.com/visio/2003/SVGExtensions/" width="1.59016in"
		height="2.26331in" viewBox="0 0 114.491 162.959" xml:space="preserve" color-interpolation-filters="sRGB" class="st6">
	<title>UmlSterotypes</title>
	<v:documentProperties v:langID="1033" v:viewMarkup="false"/>

	<style type="text/css">
	<![CDATA[
		.st1 {fill:#99ccff;stroke:#000080;stroke-linecap:round;stroke-linejoin:round;stroke-width:0.72}
		.st2 {fill:#99ccff;stroke:#000080;stroke-linecap:round;stroke-linejoin:round;stroke-width:0.72;visibility:hidden}
		.st3 {stroke:#000080;stroke-linecap:round;stroke-linejoin:round;stroke-width:0.72}
		.st4 {fill:#000080;stroke:none;stroke-linecap:round;stroke-linejoin:round;stroke-width:0.72}
		.st5 {fill:#000080;stroke:none;stroke-linecap:round;stroke-linejoin:round;stroke-width:0.72;visibility:hidden}
		.st6 {fill:none;fill-rule:evenodd;font-size:12;overflow:visible;stroke-linecap:square;stroke-miterlimit:3}
	]]>
	</style>

	<g v:mID="0" v:index="1" v:groupContext="foregroundPage">
		<title>Page-1</title>
		<v:pageProperties v:drawingScale="0.0138889" v:pageScale="0.0138889" v:drawingUnits="29" v:shadowOffsetX="9"
				v:shadowOffsetY="-9"/>
		<g id="group9-1" v:mID="9" v:groupContext="group">
			<title>Sheet.9</title>
			<g id="shape10-2" v:mID="10" v:groupContext="shape" transform="translate(16.9904,-19.9934)">
				<title>Sheet.10</title>
				<path d="M31.29 156.19 A6.54995 6.54995 -180 0 0 37.62 162.96 L39.2 162.96 A6.54995 6.54995 -180 0 0 45.52 156.19
							 L45.52 103.86 L45.52 62.86 A1.47374 1.47374 0 0 1 46.94 61.33 A1.47374 1.47374 0 0 1 48.36 62.86 L48.36
							 100.77 A4.42122 4.42122 -180 0 0 52.63 105.34 A4.42122 4.42122 -180 0 0 56.9 100.77 L56.9 55.75 A4.42122
							 4.42122 -180 0 0 52.63 51.18 L4.27 51.18 A4.42122 4.42122 -180 0 0 0 55.75 L0 100.77 A4.42122 4.42122
							 -180 0 0 4.27 105.34 A4.42122 4.42122 -180 0 0 8.53 100.77 L8.53 62.86 A1.47374 1.47374 0 0 1 9.96 61.33
							 A1.47374 1.47374 0 0 1 11.38 62.86 L11.38 103.86 L11.38 156.12 A6.54995 6.54995 -180 0 0 17.7 162.89
							 L19.28 162.89 A6.54995 6.54995 -180 0 0 25.6 156.12 L25.6 106.91 A2.94748 2.94748 0 0 1 28.45 103.86
							 A2.94748 2.94748 0 0 1 31.29 106.91 L31.29 156.19 Z M15.81 34.25 A12.644 13.5405 0 0 1 41.09 34.25 A12.644
							 13.5405 0 1 1 15.81 34.25 Z" class="st1"/>
			</g>
			<g id="shape11-4" v:mID="11" v:groupContext="shape" transform="translate(5.43946,-2.39336)">
				<title>Sheet.11</title>
				<v:textBlock v:margins="rect(4,4,4,4)" v:verticalAlign="0"/>
				<rect x="0" y="145.359" width="80" height="17.6" class="st2"/>
			</g>
		</g>
		<g id="shape16-6" v:mID="16" v:groupContext="shape" transform="translate(62.5089,236.941) rotate(180)">
			<title>Sheet.16</title>
			<path d="M0 162.96 L34.14 162.96" class="st3"/>
		</g>
		<g id="shape17-9" v:mID="17" v:groupContext="shape" transform="translate(73.8885,234.998) rotate(180)">
			<title>Sheet.17</title>
			<path d="M0 162.96 L8.53 162.96" class="st3"/>
		</g>
		<g id="shape18-12" v:mID="18" v:groupContext="shape" transform="translate(25.5251,234.801) rotate(180)">
			<title>Sheet.18</title>
			<path d="M0 162.96 L8.53 162.96" class="st3"/>
		</g>
		<g id="group5-15" transform="translate(37.5276,-47.9186)" v:mID="5" v:groupContext="group">
			<v:userDefs>
				<v:ud v:nameU="visVersion" v:val="VT0(11):26"/>
			</v:userDefs>
			<title>Shopping cart</title>
			<g id="shape6-16" v:mID="6" v:groupContext="shape">
				<title>Sheet.6</title>
				<path d="M71.62 133.04 L18.63 140.26 A2.31283 2.06569 -180 1 0 18.48 144.39 L73.93 144.39 L73.93 148.52 L18.48 148.52
							 A7.49573 6.69485 179.72 0 1 15.79 135.47 L6.93 98.99 L1.16 98.99 L0 94.87 L13.86 94.87 L16.17 103.12
							 L73.93 103.12 L71.62 133.04 Z M17.92 156.77 A6.72065 6.19007 0 0 1 31.36 156.77 A6.72065 6.19007 0 1
							 1 17.92 156.77 Z M56.01 156.77 A6.72065 6.19008 0 0 1 69.45 156.77 A6.72065 6.19008 0 0 1 56.01 156.77
							 Z" class="st4"/>
			</g>
			<g id="shape7-18" v:mID="7" v:groupContext="shape" transform="translate(-3.03643,17.6)">
				<title>Sheet.7</title>
				<v:textBlock v:margins="rect(4,4,4,4)" v:verticalAlign="0"/>
				<rect x="0" y="145.359" width="80" height="17.6" class="st5"/>
			</g>
		</g>
	</g>
</svg>
