<?xml version="1.0" encoding="UTF-8" standalone="no"?>
<!DOCTYPE svg PUBLIC "-//W3C//DTD SVG 1.0//EN" "http://www.w3.org/TR/2001/REC-SVG-20010904/DTD/svg10.dtd">
<!-- Generated by Microsoft Visio 11.0, SVG Export, v1.0 Supplier-LargeIcon.svg Page-1 -->
<svg xmlns="http://www.w3.org/2000/svg" xmlns:v="http://schemas.microsoft.com/visio/2003/SVGExtensions/" width="3.7215in"
		height="4.6183in" viewBox="0 0 267.948 332.518" xml:space="preserve" color-interpolation-filters="sRGB" class="st6">
	<title>UmlSterotypes</title>
	<v:documentProperties v:langID="1033" v:viewMarkup="false"/>

	<style type="text/css">
	<![CDATA[
		.st1 {fill:#99ccff;stroke:#000080;stroke-linecap:round;stroke-linejoin:round;stroke-width:0.24;visibility:hidden}
		.st2 {fill:#99ccff;stroke:#000080;stroke-linecap:round;stroke-linejoin:round;stroke-width:2.16}
		.st3 {stroke:#000080;stroke-linecap:round;stroke-linejoin:round;stroke-width:2.16}
		.st4 {fill:#000080;stroke:none;stroke-linecap:round;stroke-linejoin:round;stroke-width:2.16}
		.st5 {fill:#000080;stroke:none;stroke-linecap:butt;stroke-width:2.16}
		.st6 {fill:none;fill-rule:evenodd;font-size:12;overflow:visible;stroke-linecap:square;stroke-miterlimit:3}
	]]>
	</style>

	<g v:mID="0" v:index="1" v:groupContext="foregroundPage">
		<title>Page-1</title>
		<v:pageProperties v:drawingScale="0.393701" v:pageScale="0.393701" v:drawingUnits="6" v:shadowOffsetX="9"
				v:shadowOffsetY="-9"/>
		<g id="shape11-1" v:mID="11" v:groupContext="shape" transform="translate(135.72,-30.1569)">
			<title>Sheet.11</title>
			<v:textBlock v:margins="rect(4,4,4,4)" v:verticalAlign="0"/>
			<rect x="0" y="314.918" width="80" height="17.6" class="st1"/>
		</g>
		<g id="group9-3" transform="translate(2.16597,-2.16)" v:mID="9" v:groupContext="group">
			<title>Sheet.9</title>
			<g id="shape10-4" v:mID="10" v:groupContext="shape">
				<title>Sheet.10</title>
				<path d="M72.2 316.9 A15.1125 15.1125 -180 0 0 86.79 332.52 L90.44 332.52 A15.1125 15.1125 -180 0 0 105.02 316.9
							 L105.02 196.16 L105.02 101.56 A3.40031 3.40031 0 0 1 108.31 98.04 A3.40031 3.40031 0 0 1 111.59 101.56
							 L111.59 189.04 A10.2009 10.2009 -180 0 0 121.43 199.58 A10.2009 10.2009 -180 0 0 131.28 189.04 L131.28
							 85.16 A10.2009 10.2009 -180 0 0 121.43 74.61 L9.85 74.61 A10.2009 10.2009 -180 0 0 0 85.16 L0 189.04
							 A10.2009 10.2009 -180 0 0 9.85 199.58 A10.2009 10.2009 -180 0 0 19.69 189.04 L19.69 101.56 A3.40031
							 3.40031 0 0 1 22.97 98.04 A3.40031 3.40031 0 0 1 26.26 101.56 L26.26 196.16 L26.26 316.73 A15.1125 15.1125
							 -180 0 0 40.84 332.36 L44.49 332.36 A15.1125 15.1125 -180 0 0 59.08 316.73 L59.08 203.19 A6.80062 6.80062
							 0 0 1 65.64 196.16 A6.80062 6.80062 0 0 1 72.2 203.19 L72.2 316.9 Z M36.47 35.56 A29.1731 31.2414 0
							 0 1 94.81 35.56 A29.1731 31.2414 0 1 1 36.47 35.56 Z" class="st2"/>
			</g>
			<g id="shape16-6" v:mID="16" v:groupContext="shape" transform="translate(105.023,505.875) rotate(180)">
				<title>Sheet.16</title>
				<path d="M0 332.52 L78.77 332.52" class="st3"/>
			</g>
			<g id="shape17-9" v:mID="17" v:groupContext="shape" transform="translate(138.949,500.848) rotate(178.678)">
				<title>Sheet.17</title>
				<path d="M0 332.52 L19.7 332.52" class="st3"/>
			</g>
			<g id="shape18-12" v:mID="18" v:groupContext="shape" transform="translate(19.6919,500.937) rotate(180)">
				<title>Sheet.18</title>
				<path d="M0 332.52 L19.69 332.52" class="st3"/>
			</g>
		</g>
		<g id="group33-15" transform="translate(81.671,-91.7078)" v:mID="33" v:groupContext="group">
			<title>Sheet.33</title>
			<g id="shape2-16" v:mID="2" v:groupContext="shape">
				<title>Rectangle.22</title>
				<v:userDefs>
					<v:ud v:nameU="visVersion" v:val="VT0(11):26"/>
				</v:userDefs>
				<rect x="0" y="319.964" width="184.117" height="12.5534" class="st4"/>
			</g>
			<g id="group32-18" transform="translate(12.944,-18.4768)" v:mID="32" v:groupContext="group">
				<title>Sheet.32</title>
				<g id="group1-19" transform="translate(55.6628,-54.3982)" v:mID="1" v:groupContext="group">
					<title>Sheet.1</title>
					<g id="shape6-20" v:mID="6" v:groupContext="shape">
						<title>Square.6</title>
						<v:userDefs>
							<v:ud v:nameU="visVersion" v:val="VT0(11):26"/>
						</v:userDefs>
						<rect x="0" y="285.615" width="46.9033" height="46.9033" class="st5"/>
					</g>
				</g>
				<g id="group3-22" transform="translate(111.326,-0.874091)" v:mID="3" v:groupContext="group">
					<title>Sheet.3</title>
					<g id="shape4-23" v:mID="4" v:groupContext="shape">
						<title>Square.6</title>
						<v:userDefs>
							<v:ud v:nameU="visVersion" v:val="VT0(11):26"/>
						</v:userDefs>
						<rect x="0" y="285.615" width="46.9033" height="46.9033" class="st5"/>
					</g>
				</g>
				<g id="group13-25" transform="translate(55.6628,-0.874091)" v:mID="13" v:groupContext="group">
					<title>Sheet.13</title>
					<g id="shape14-26" v:mID="14" v:groupContext="shape">
						<title>Square.6</title>
						<v:userDefs>
							<v:ud v:nameU="visVersion" v:val="VT0(11):26"/>
						</v:userDefs>
						<rect x="0" y="285.615" width="46.9033" height="46.9033" class="st5"/>
					</g>
				</g>
				<g id="group20-28" v:mID="20" v:groupContext="group">
					<title>Sheet.20</title>
					<g id="shape21-29" v:mID="21" v:groupContext="shape">
						<title>Square.6</title>
						<v:userDefs>
							<v:ud v:nameU="visVersion" v:val="VT0(11):26"/>
						</v:userDefs>
						<rect x="0" y="285.615" width="46.9033" height="46.9033" class="st5"/>
					</g>
				</g>
				<g id="group24-31" transform="translate(111.326,-54.3982)" v:mID="24" v:groupContext="group">
					<title>Sheet.24</title>
					<g id="shape25-32" v:mID="25" v:groupContext="shape">
						<title>Square.6</title>
						<v:userDefs>
							<v:ud v:nameU="visVersion" v:val="VT0(11):26"/>
						</v:userDefs>
						<rect x="0" y="285.615" width="46.9033" height="46.9033" class="st5"/>
					</g>
				</g>
				<g id="group28-34" transform="translate(0,-54.3982)" v:mID="28" v:groupContext="group">
					<title>Sheet.28</title>
					<g id="shape29-35" v:mID="29" v:groupContext="shape">
						<title>Square.6</title>
						<v:userDefs>
							<v:ud v:nameU="visVersion" v:val="VT0(11):26"/>
						</v:userDefs>
						<rect x="0" y="285.615" width="46.9033" height="46.9033" class="st5"/>
					</g>
				</g>
			</g>
		</g>
	</g>
</svg>
